<svg width="32" height="32" viewBox="0 0 32 32" fill="none" xmlns="http://www.w3.org/2000/svg">
  <rect width="32" height="32" rx="6" fill="url(#gradient)"/>
  <defs>
    <linearGradient id="gradient" x1="0%" y1="0%" x2="100%" y2="100%">
      <stop offset="0%" style="stop-color:#667eea"/>
      <stop offset="50%" style="stop-color:#764ba2"/>
      <stop offset="100%" style="stop-color:#f093fb"/>
    </linearGradient>
  </defs>
  <!-- Wallet Icon -->
  <path d="M8 12V10C8 8.89543 8.89543 8 10 8H22C23.1046 8 24 8.89543 24 10V22C24 23.1046 23.1046 24 22 24H10C8.89543 24 8 23.1046 8 22V12Z" stroke="white" stroke-width="1.5" fill="none"/>
  <path d="M24 12H26C27.1046 12 28 12.8954 28 14V18C28 19.1046 27.1046 20 26 20H24" stroke="white" stroke-width="1.5" fill="none"/>
  <circle cx="22" cy="16" r="1.5" fill="white"/>
  <!-- Dollar Sign -->
  <path d="M14 10V12M14 20V22M12 14C12 13.4477 12.4477 13 13 13H15C15.5523 13 16 13.4477 16 14C16 14.5523 15.5523 15 15 15H13C12.4477 15 12 15.4477 12 16C12 16.5523 12.4477 17 13 17H15C15.5523 17 16 17.4477 16 18C16 18.5523 15.5523 19 15 19H13C12.4477 19 12 18.5523 12 18" stroke="white" stroke-width="1" fill="none"/>
</svg>